# xmcd
#
# Track frame offsets: 
#        150
#        17535
#        34775
#        65907
#        91240
#        111137
#        144607
#        163715
#        190157
#        242335
#        276117
#        296292
#        326927
#
# Disc length: 4628 seconds
#
# Revision: 1
# Processed by: cddbd v1.5.2PL0 Copyright (c) Steve Scherf et al.
# Submitted via: ExactAudioCopy v0.99pb4
#
DISCID=b712120d
DTITLE=Various Artist - Jazziz June 2008 Cool Summer 7
DYEAR=2008
DGENRE=Jazz
TTITLE0=Astrud Gilberto - Bim Bom (Psapp remix)
TTITLE1=Kirk Whatum - Roundtrip
TTITLE2=Alon Yavni - Itha B'nit
TTITLE3=K J Denhert - I Got Time
TTITLE4=Brian Culbertson - Always Remember
TTITLE5=Stanley Jordan - Ocean Breeze
TTITLE6=David Benoit - Human Nature
TTITLE7=Antonio Ciacca - Squazin'
TTITLE8=Brian Hughes - While the World Slowly Turns
TTITLE9=The Gregory James Quartet - Samsara
TTITLE10=Candy Dulfer - Summertime
TTITLE11=Duke Robillard - Red Dog
TTITLE12=Wayman Tisdale - I'll Do the Driving
EXTD=YEAR: 2008
EXTT0=
EXTT1=
EXTT2=
EXTT3=
EXTT4=
EXTT5=
EXTT6=
EXTT7=
EXTT8=
EXTT9=
EXTT10=
EXTT11=
EXTT12=
PLAYORDER=
